<svg width="28" height="28" viewBox="0 0 28 28" fill="none" xmlns="http://www.w3.org/2000/svg">
<path d="M24.5799 4.49561H3.42014C1.53436 4.49561 0 6.02996 0 7.91574V20.0843C0 21.97 1.53436 23.5044 3.42014 23.5044H24.5799C26.4656 23.5044 28 21.97 28 20.0843V7.91612C28.0004 6.02996 26.466 4.49561 24.5799 4.49561ZM22.9086 6.72686L14 12.4664L5.09135 6.72686H22.9086ZM24.5799 21.2735H3.42014C2.76452 21.2735 2.23125 20.7399 2.23125 20.0846V7.97934L13.3117 15.1045C13.3265 15.1138 13.3425 15.1201 13.3578 15.1286C13.3738 15.1376 13.3901 15.1461 13.4065 15.1543C13.4924 15.1986 13.5809 15.2343 13.6713 15.2577C13.6806 15.2603 13.6899 15.2614 13.6992 15.2636C13.7984 15.2871 13.8988 15.3016 13.9993 15.3016H14C14.0007 15.3016 14.0015 15.3016 14.0015 15.3016C14.1019 15.3016 14.2023 15.2874 14.3016 15.2636C14.3109 15.2614 14.3202 15.2603 14.3295 15.2577C14.4198 15.2343 14.508 15.1986 14.5943 15.1543C14.6106 15.1461 14.627 15.1376 14.643 15.1286C14.6582 15.1201 14.6742 15.1138 14.6891 15.1045L25.7695 7.97934V20.0843C25.7691 20.7399 25.2355 21.2735 24.5799 21.2735Z" fill="#242424"/>
</svg>
