<svg width="28" height="28" viewBox="0 0 28 28" fill="none" xmlns="http://www.w3.org/2000/svg">
<g clip-path="url(#clip0_29_361)">
<path d="M0.0664062 28L2.03457 20.8098C0.820073 18.7052 0.181906 16.3193 0.183073 13.8728C0.186573 6.22417 6.41074 0 14.0582 0C17.7694 0.00116667 21.2531 1.44667 23.8734 4.06933C26.4926 6.692 27.9346 10.178 27.9334 13.8857C27.9299 21.5355 21.7057 27.7597 14.0582 27.7597C11.7366 27.7585 9.44874 27.1763 7.42224 26.0703L0.0664062 28ZM7.76291 23.5585C9.71824 24.7193 11.5849 25.4147 14.0536 25.4158C20.4096 25.4158 25.5872 20.2428 25.5907 13.8833C25.5931 7.511 20.4399 2.345 14.0629 2.34267C7.70224 2.34267 2.52807 7.51567 2.52574 13.874C2.52457 16.4698 3.28524 18.4135 4.56274 20.447L3.39724 24.703L7.76291 23.5585ZM21.0477 17.1838C20.9614 17.0392 20.7304 16.9528 20.3827 16.779C20.0362 16.6052 18.3317 15.7663 18.0132 15.6508C17.6959 15.5353 17.4649 15.477 17.2327 15.8247C17.0017 16.1712 16.3367 16.9528 16.1349 17.1838C15.9331 17.4148 15.7301 17.444 15.3836 17.2702C15.0371 17.0963 13.9194 16.7312 12.5952 15.5493C11.5651 14.63 10.8686 13.4948 10.6667 13.1472C10.4649 12.8007 10.6457 12.6128 10.8184 12.4402C10.9747 12.285 11.1649 12.0353 11.3387 11.8323C11.5149 11.6317 11.5721 11.487 11.6887 11.2548C11.8042 11.0238 11.7471 10.8208 11.6596 10.647C11.5721 10.4743 10.8791 8.7675 10.5909 8.07333C10.3086 7.39783 10.0227 7.48883 9.81041 7.47833L9.14541 7.46667C8.91441 7.46667 8.53874 7.553 8.22141 7.90067C7.90407 8.24833 7.00807 9.086 7.00807 10.7928C7.00807 12.4997 8.25057 14.1482 8.42324 14.3792C8.59707 14.6102 10.8674 18.1125 14.3452 19.614C15.1724 19.971 15.8187 20.1845 16.3216 20.3443C17.1522 20.608 17.9082 20.5707 18.5056 20.482C19.1717 20.3828 20.5566 19.6432 20.8459 18.8335C21.1352 18.0227 21.1352 17.3285 21.0477 17.1838Z" fill="#242424"/>
</g>
<defs>
<clipPath id="clip0_29_361">
<rect width="28" height="28" fill="white"/>
</clipPath>
</defs>
</svg>
