<svg width="48" height="48" viewBox="0 0 48 48" fill="none" xmlns="http://www.w3.org/2000/svg">
<g id="Electron_Software_Framework_Logo 1" clip-path="url(#clip0_29_667)">
<g id="Group">
<path id="Vector" d="M24 48C10.7452 48 0 37.2548 0 24C0 10.7452 10.7452 0 24 0C37.2548 0 48 10.7452 48 24C48 37.2548 37.2548 48 24 48Z" fill="#242424"/>
<g id="Group_2">
<path id="Vector_2" d="M29.1559 13.4419C34.0318 12.5539 37.8872 13.4833 39.4237 16.1447C40.5703 18.1307 40.2426 20.7638 38.6287 23.5783C38.5969 23.6368 38.5537 23.6883 38.5016 23.7298C38.4496 23.7714 38.3898 23.8021 38.3257 23.8202C38.2616 23.8383 38.1946 23.8434 38.1285 23.8353C38.0625 23.8272 37.9987 23.8059 37.9409 23.7728C37.8832 23.7397 37.8326 23.6953 37.7922 23.6424C37.7518 23.5895 37.7224 23.529 37.7057 23.4646C37.6889 23.4001 37.6852 23.333 37.6948 23.2671C37.7044 23.2012 37.727 23.1379 37.7614 23.0809C39.2149 20.5455 39.4978 18.2732 38.5577 16.6448C37.2812 14.434 33.8424 13.6048 29.3351 14.4257C29.2056 14.4473 29.0728 14.417 28.9654 14.3415C28.858 14.266 28.7846 14.1513 28.761 14.0221C28.7375 13.8929 28.7657 13.7596 28.8396 13.6511C28.9135 13.5425 29.0271 13.4674 29.1559 13.4419ZM36.0932 26.9995C34.1216 29.166 31.5602 31.1983 28.6389 32.8847C21.5659 36.9685 14.0359 38.0599 10.3249 35.5296C10.2694 35.4931 10.2217 35.446 10.1846 35.3909C10.1475 35.3358 10.1217 35.2739 10.1088 35.2088C10.0959 35.1436 10.0961 35.0766 10.1094 35.0115C10.1227 34.9465 10.1488 34.8847 10.1862 34.8298C10.2237 34.775 10.2716 34.7281 10.3273 34.692C10.3831 34.6559 10.4454 34.6312 10.5108 34.6194C10.5761 34.6077 10.6432 34.609 10.708 34.6235C10.7728 34.6379 10.8341 34.6651 10.8883 34.7035C14.2097 36.9681 21.3624 35.9312 28.1389 32.0188C30.9727 30.3827 33.4532 28.4147 35.3535 26.3263C35.3976 26.2775 35.4509 26.2378 35.5104 26.2096C35.5699 26.1814 35.6344 26.1652 35.7001 26.162C35.7659 26.1588 35.8316 26.1686 35.8936 26.1908C35.9556 26.213 36.0125 26.2473 36.0612 26.2916C36.1099 26.3359 36.1494 26.3894 36.1773 26.449C36.2053 26.5086 36.2212 26.5731 36.2242 26.6389C36.2272 26.7047 36.2171 26.7704 36.1946 26.8322C36.1722 26.8941 36.1377 26.9509 36.0932 26.9995Z" fill="#ffba00"/>
<path id="Vector_3" d="M11.5085 26.3912C8.31571 22.6194 7.20102 18.8259 8.7344 16.1702C9.86258 14.2159 12.2478 13.1841 15.4178 13.1428C15.5492 13.143 15.6752 13.1949 15.7687 13.2873C15.8621 13.3796 15.9154 13.505 15.9171 13.6364C15.9188 13.7678 15.8688 13.8945 15.7777 13.9893C15.6867 14.084 15.5621 14.1392 15.4308 14.1428C12.5798 14.1799 10.5248 15.0688 9.60027 16.6703C8.32677 18.8762 9.3209 22.2591 12.2718 25.7451C12.3151 25.7951 12.348 25.8532 12.3687 25.916C12.3894 25.9788 12.3974 26.0451 12.3923 26.1111C12.3872 26.177 12.3691 26.2413 12.3389 26.3002C12.3088 26.359 12.2673 26.4114 12.2168 26.4541C12.1663 26.4968 12.1079 26.5291 12.0448 26.5491C11.9818 26.5691 11.9154 26.5764 11.8495 26.5705C11.7836 26.5647 11.7196 26.5458 11.661 26.515C11.6025 26.4842 11.5506 26.4422 11.5085 26.3912ZM19.7136 13.6084C22.6004 14.2269 25.6731 15.4363 28.624 17.1399C35.9256 21.3555 40.6887 27.5717 40.0272 32.079C40.0184 32.1446 39.9966 32.2078 39.9632 32.2649C39.9298 32.322 39.8854 32.3719 39.8325 32.4118C39.7796 32.4516 39.7194 32.4805 39.6553 32.4969C39.5912 32.5133 39.5244 32.5167 39.4589 32.5071C39.3935 32.4975 39.3305 32.475 39.2738 32.4409C39.2171 32.4068 39.1678 32.3617 39.1286 32.3084C39.0894 32.255 39.0612 32.1945 39.0456 32.1301C39.03 32.0658 39.0274 31.9991 39.0378 31.9337C39.6252 27.9317 35.1102 22.0395 28.124 18.006C25.2614 16.3532 22.2861 15.1823 19.5042 14.5862C19.4391 14.5734 19.3772 14.5477 19.3221 14.5107C19.267 14.4737 19.2199 14.4261 19.1833 14.3707C19.1468 14.3153 19.1217 14.2532 19.1095 14.1879C19.0972 14.1227 19.098 14.0557 19.1119 13.9908C19.1258 13.926 19.1525 13.8645 19.1904 13.81C19.2283 13.7555 19.2767 13.7091 19.3327 13.6735C19.3887 13.638 19.4512 13.6139 19.5166 13.6027C19.582 13.5915 19.649 13.5934 19.7136 13.6084Z" fill="#ffba00"/>
<path id="Vector_4" d="M31.5431 35.2037C29.8736 39.865 27.1426 42.735 24.0717 42.735C21.8321 42.735 19.76 41.2082 18.1441 38.5204C18.1091 38.4641 18.0857 38.4014 18.0752 38.336C18.0647 38.2705 18.0672 38.2036 18.0828 38.1392C18.0984 38.0748 18.1266 38.0141 18.1658 37.9607C18.205 37.9072 18.2544 37.8621 18.3113 37.828C18.3681 37.7938 18.4311 37.7713 18.4967 37.7617C18.5623 37.7522 18.6291 37.7557 18.6933 37.7722C18.7575 37.7887 18.8178 37.8178 18.8706 37.8578C18.9235 37.8978 18.9679 37.9479 19.0012 38.0052C20.4534 40.4207 22.2371 41.7349 24.0717 41.7349C26.6227 41.7349 29.0585 39.1752 30.6014 34.8668C30.6226 34.8037 30.6561 34.7455 30.7 34.6955C30.7439 34.6455 30.7974 34.6048 30.8572 34.5758C30.9171 34.5467 30.9821 34.5299 31.0485 34.5263C31.115 34.5227 31.1815 34.5324 31.2441 34.5548C31.3067 34.5772 31.3643 34.6119 31.4133 34.6568C31.4624 34.7018 31.502 34.756 31.5298 34.8165C31.5577 34.8769 31.5731 34.9423 31.5754 35.0088C31.5776 35.0753 31.5666 35.1415 31.5429 35.2037H31.5431ZM16.2952 34.2919C15.4308 31.5304 14.9667 28.3448 14.9667 25.0251C14.9667 16.7415 17.8661 9.60078 21.9956 7.76722C22.1162 7.71669 22.2518 7.71544 22.3734 7.76372C22.4949 7.81201 22.5927 7.906 22.6458 8.02554C22.6989 8.14507 22.703 8.28064 22.6573 8.40319C22.6116 8.52573 22.5197 8.6255 22.4013 8.68109C18.7182 10.3167 15.9669 17.0935 15.9669 25.0251C15.9669 28.2458 16.4163 31.3307 17.2494 33.9932C17.2701 34.0562 17.278 34.1226 17.2728 34.1887C17.2676 34.2547 17.2493 34.3191 17.219 34.3781C17.1887 34.437 17.147 34.4893 17.0963 34.532C17.0456 34.5747 16.9869 34.6068 16.9237 34.6266C16.8604 34.6464 16.7939 34.6534 16.7279 34.6473C16.6619 34.6411 16.5978 34.6219 16.5393 34.5908C16.4808 34.5596 16.4291 34.5172 16.3871 34.4659C16.3452 34.4146 16.3139 34.3554 16.295 34.2919H16.2952ZM6.87818 33.8022C6.87818 32.4805 7.94955 31.4091 9.27124 31.4091C10.5929 31.4091 11.6643 32.4805 11.6643 33.8022C11.6643 35.1238 10.5929 36.1952 9.27124 36.1952C7.94955 36.1952 6.87818 35.1238 6.87818 33.8022ZM7.87812 33.8022C7.87812 33.9851 7.91415 34.1663 7.98416 34.3353C8.05417 34.5043 8.15679 34.6579 8.28615 34.7872C8.41551 34.9166 8.56909 35.0192 8.73812 35.0892C8.90714 35.1592 9.08829 35.1953 9.27124 35.1953C9.45419 35.1953 9.63535 35.1592 9.80437 35.0892C9.97339 35.0192 10.127 34.9166 10.2563 34.7872C10.3857 34.6579 10.4883 34.5043 10.5583 34.3353C10.6283 34.1663 10.6644 33.9851 10.6644 33.8022C10.6644 33.4327 10.5176 33.0783 10.2563 32.8171C9.99507 32.5558 9.64072 32.409 9.27124 32.409C8.90176 32.409 8.54741 32.5558 8.28615 32.8171C8.02489 33.0783 7.87812 33.4327 7.87812 33.8022ZM38.9067 36.1952C37.5849 36.1952 36.5135 35.1238 36.5135 33.8022C36.5135 32.4805 37.5851 31.4091 38.9067 31.4091C40.2282 31.4091 41.2998 32.4805 41.2998 33.8022C41.2998 35.1238 40.2282 36.1952 38.9067 36.1952ZM38.9067 35.1953C39.2762 35.1953 39.6306 35.0485 39.8918 34.7872C40.1531 34.526 40.2999 34.1716 40.2999 33.8022C40.2999 33.4327 40.1531 33.0783 39.8918 32.8171C39.6306 32.5558 39.2762 32.409 38.9067 32.409C38.5373 32.409 38.1829 32.5558 37.9217 32.8171C37.6604 33.0783 37.5136 33.4327 37.5136 33.8022C37.5136 34.1716 37.6604 34.526 37.9217 34.7872C38.1829 35.0485 38.5373 35.1953 38.9067 35.1953Z" fill="#ffba00"/>
<path id="Vector_5" d="M24.0718 10.2082C22.7501 10.2082 21.6787 9.13687 21.6787 7.81518C21.6787 6.49349 22.7501 5.42212 24.0718 5.42212C25.3935 5.42212 26.4648 6.49349 26.4648 7.81518C26.4648 9.13687 25.3935 10.2082 24.0718 10.2082ZM24.0718 9.20831C24.4413 9.20831 24.7956 9.06153 25.0569 8.80027C25.3181 8.53901 25.4649 8.18466 25.4649 7.81518C25.4649 7.4457 25.3181 7.09136 25.0569 6.83009C24.7956 6.56883 24.4413 6.42206 24.0718 6.42206C23.7023 6.42206 23.348 6.56883 23.0867 6.83009C22.8254 7.09136 22.6787 7.4457 22.6787 7.81518C22.6787 8.18466 22.8254 8.53901 23.0867 8.80027C23.348 9.06153 23.7023 9.20831 24.0718 9.20831ZM23.7063 26.7174C24.641 26.9194 25.5618 26.3254 25.7642 25.3907C25.861 24.9418 25.7757 24.4729 25.5269 24.087C25.2781 23.7011 24.8862 23.4297 24.4374 23.3327C23.5027 23.1307 22.5819 23.7247 22.3794 24.6594C22.1775 25.5941 22.7715 26.5151 23.7063 26.7174Z" fill="#ffba00"/>
</g>
</g>
</g>
<defs>
<clipPath id="clip0_29_667">
<rect width="48" height="48" fill="white" transform="matrix(-1 0 0 1 48 0)"/>
</clipPath>
</defs>
</svg>
