<svg width="100" height="20" viewBox="0 0 100 20" fill="none" xmlns="http://www.w3.org/2000/svg">
<g id="Nextjs-logo 1" clip-path="url(#clip0_29_623)">
<path id="Vector" d="M66.4766 0.00830078H83.8948V3.17503H76.9852V19.8348H73.5301V3.17503H66.4766V0.00830078Z" fill="#242424"/>
<path id="Vector_2" d="M37.8303 0.00830078V3.17503H23.8684V8.26933H35.0966V11.4361H23.8684V16.6681H37.8303V19.8348H20.4136V3.17503H20.4121V0.00830078H37.8303Z" fill="#242424"/>
<path id="Vector_3" d="M46.5282 0.0164795H42.0068L58.2013 19.843H62.7358L54.6376 9.93654L62.7228 0.0316058L58.2013 0.0384883L52.3738 7.16737L46.5282 0.0164795Z" fill="#242424"/>
<path id="Vector_4" d="M51.168 14.1787L48.9038 11.4058L41.9941 19.8582H46.5284L51.168 14.1787Z" fill="#242424"/>
<path id="Vector_5" fill-rule="evenodd" clip-rule="evenodd" d="M20.5348 19.8348L4.31856 0H0V19.8265H3.45485V4.2379L16.1946 19.8348H20.5348Z" fill="#242424"/>
<path id="Vector_6" d="M84.6714 19.7136C84.4183 19.7136 84.2031 19.6273 84.0229 19.4546C83.8427 19.2819 83.7536 19.0729 83.7559 18.8252C83.7536 18.5844 83.8427 18.3776 84.0229 18.2049C84.2031 18.0323 84.4183 17.9459 84.6714 17.9459C84.9148 17.9459 85.1277 18.0323 85.3079 18.2049C85.4907 18.3776 85.5818 18.5844 85.5843 18.8252C85.5818 18.9888 85.5397 19.1388 85.4554 19.2728C85.3688 19.4092 85.259 19.516 85.1206 19.5932C84.9848 19.6727 84.8351 19.7136 84.6714 19.7136Z" fill="#242424"/>
<path id="Vector_7" d="M90.5685 11.3613H92.0994V17.1712C92.0972 17.7051 91.9799 18.1618 91.7507 18.5458C91.519 18.9298 91.1982 19.2229 90.7862 19.4296C90.3766 19.6341 89.8967 19.7387 89.3512 19.7387C88.8525 19.7387 88.4055 19.65 88.0076 19.4774C87.6096 19.3047 87.2936 19.0457 87.0619 18.7048C86.8276 18.364 86.7129 17.9391 86.7129 17.4302H88.2464C88.2487 17.6529 88.3002 17.846 88.3984 18.0073C88.4967 18.1686 88.6324 18.2913 88.8058 18.3776C88.9812 18.464 89.1827 18.5072 89.4096 18.5072C89.6555 18.5072 89.8662 18.4572 90.037 18.3549C90.2078 18.2549 90.339 18.105 90.4304 17.905C90.5192 17.7074 90.5662 17.462 90.5685 17.1712V11.3613Z" fill="#242424"/>
<path id="Vector_8" d="M98.399 13.6335C98.3617 13.2813 98.1978 13.0064 97.9122 12.811C97.6242 12.6133 97.2521 12.5156 96.7955 12.5156C96.4749 12.5156 96.1988 12.5633 95.9693 12.6565C95.7399 12.7519 95.562 12.8791 95.4401 13.0404C95.3186 13.2018 95.2577 13.3858 95.2528 13.5926C95.2528 13.7653 95.295 13.9152 95.3769 14.0402C95.4589 14.1674 95.5688 14.2742 95.7117 14.3606C95.8521 14.4492 96.0089 14.5219 96.18 14.5809C96.3531 14.64 96.5264 14.69 96.6995 14.7309L97.4978 14.924C97.8186 14.9967 98.13 15.0945 98.4272 15.2194C98.7244 15.3421 98.9937 15.4989 99.23 15.6875C99.4665 15.8761 99.6539 16.1033 99.7919 16.3691C99.93 16.6349 100 16.9462 100 17.3052C100 17.7892 99.8739 18.2141 99.6186 18.5821C99.3635 18.9479 98.996 19.2342 98.5138 19.441C98.0338 19.6455 97.4533 19.75 96.7698 19.75C96.1097 19.75 95.5338 19.6501 95.0493 19.4501C94.5625 19.2524 94.183 18.9616 93.9092 18.5799C93.6353 18.1982 93.4879 17.7324 93.4668 17.1848H94.9838C95.0049 17.4711 95.0985 17.7097 95.2577 17.9028C95.4191 18.0936 95.6297 18.2345 95.8874 18.3299C96.1473 18.4231 96.4374 18.4708 96.7582 18.4708C97.0929 18.4708 97.3879 18.4208 97.6429 18.3231C97.8957 18.2254 98.0947 18.0891 98.2376 17.9119C98.3828 17.7369 98.4554 17.5302 98.4577 17.2939C98.4554 17.078 98.3896 16.8985 98.2632 16.7576C98.1346 16.6168 97.9566 16.4986 97.7295 16.4032C97.5003 16.3078 97.2333 16.2214 96.929 16.1464L95.9599 15.9056C95.2599 15.7306 94.7051 15.4648 94.3 15.1081C93.8929 14.7514 93.6914 14.2788 93.6914 13.6857C93.6914 13.1995 93.8272 12.7724 94.1013 12.4065C94.3726 12.0407 94.745 11.7567 95.2155 11.5545C95.6884 11.35 96.2221 11.25 96.8165 11.25C97.4206 11.25 97.9495 11.35 98.4061 11.5545C98.8625 11.7567 99.2209 12.0385 99.4805 12.3974C99.7404 12.7564 99.8762 13.1677 99.8833 13.6335H98.399Z" fill="#242424"/>
</g>
<defs>
<clipPath id="clip0_29_623">
<rect width="100" height="20" fill="#242424"/>
</clipPath>
</defs>
</svg>
