<svg width="116" height="117" viewBox="0 0 116 117" fill="none" xmlns="http://www.w3.org/2000/svg">
    <circle cx="43.5" cy="15.5" r="8.5" fill="#242424" />
    <circle cx="73" cy="100" r="8" fill="#242424" />
    <path
        d="M87.6377 29.6572H86.6377V30.6572V42.5634C86.6377 51.2493 79.2521 58.5634 70.8877 58.5634H44.1064C36.198 58.5634 29.7002 65.3102 29.7002 73.1884V98.7197C29.7002 106.706 36.6542 111.195 43.8243 113.304L43.8243 113.304C52.4796 115.849 60.8136 116.309 71.1664 113.305C74.6119 112.307 78.1189 110.783 80.7807 108.453C83.4713 106.099 85.2939 102.919 85.2939 98.7197V88.5009V87.5009H84.2939H58.5127V86.0947H84.2939H97.7002C101.878 86.0947 104.833 84.6158 107.069 82.0079C109.246 79.467 110.699 75.8996 112.055 71.8162C114.932 63.186 114.788 54.9066 112.077 44.01C111.097 40.0643 109.646 36.4872 107.358 33.8847C105.034 31.2416 101.891 29.6572 97.7002 29.6572H87.6377ZM72.5752 96.3134C74.7911 96.3134 76.6064 98.1317 76.6064 100.407C76.6064 102.699 74.7844 104.532 72.5752 104.532C70.3746 104.532 68.5439 102.698 68.5439 100.407C68.5439 98.133 70.368 96.3134 72.5752 96.3134Z"
        fill="url(#paint0_linear_279_77)" stroke="#242424" stroke-width="2" />
    <path
        d="M27.381 86H28.381V85V73.1978C28.381 64.5956 35.7198 57.3464 44.0373 57.3464H70.6687C78.5332 57.3464 85 50.6576 85 42.8405V17.5324C85 9.60782 78.0785 5.1569 70.9501 3.06686L70.95 3.06684C62.3429 0.544014 54.0552 0.0879364 43.76 3.06568C40.3334 4.05465 36.8451 5.56613 34.1972 7.87621C31.5205 10.2113 29.7061 13.3654 29.7061 17.5324V27.6618V28.6618H30.7061H56.3375V30.0383H30.7061H17.3748C13.2197 30.0383 10.2799 31.5044 8.05569 34.0912C5.88893 36.6112 4.44398 40.1486 3.09518 44.1961C0.233833 52.754 0.377327 60.9638 3.07333 71.7672C4.04758 75.6791 5.4911 79.2265 7.76786 81.8076C10.0803 84.4293 13.207 86 17.3748 86H27.381ZM42.3593 19.9089C40.156 19.9089 38.3562 18.1074 38.3562 15.8596C38.3562 13.5952 40.1626 11.7794 42.3593 11.7794C44.5473 11.7794 46.3624 13.5965 46.3624 15.8596C46.3624 18.1061 44.554 19.9089 42.3593 19.9089Z"
        fill="url(#paint1_linear_279_77)" stroke="#242424" stroke-width="2" />
    <defs>
        <linearGradient id="paint0_linear_279_77" x1="71.9309" y1="99.548" x2="49.7498" y2="68.4657"
            gradientUnits="userSpaceOnUse">
            <stop stop-color="#FFD43B" />
            <stop offset="1" stop-color="#FFE873" />
        </linearGradient>
        <linearGradient id="paint1_linear_279_77" x1="84" y1="85" x2="22.2678" y2="32.5236"
            gradientUnits="userSpaceOnUse">
            <stop stop-color="#5A9FD4" />
            <stop offset="1" stop-color="#306998" />
        </linearGradient>
    </defs>
</svg>