<svg width="54" height="48" viewBox="0 0 54 48" fill="none" xmlns="http://www.w3.org/2000/svg">
<g id="react-seeklogo.com 1" clip-path="url(#clip0_29_644)">
<path id="Vector" d="M0.157227 23.9479C0.157227 27.9578 4.07287 31.7013 10.2462 33.8113C9.01346 40.0174 10.0253 45.0195 13.4049 46.9686C16.8788 48.9719 22.054 47.5852 26.966 43.2916C31.7541 47.4119 36.5933 49.0334 39.9698 47.0788C43.4403 45.0697 44.4959 39.7283 43.2291 33.3285C49.6589 31.2026 53.2556 28.0106 53.2556 23.9479C53.2556 20.0309 49.3327 16.6422 43.2426 14.5456C44.6064 7.8813 43.4508 3.00059 39.9313 0.970983C36.5382 -0.98568 31.6428 0.719752 26.7843 4.94799C21.7298 0.460049 16.8828 -0.910177 13.3667 1.12534C9.9768 3.08757 9.00947 8.18057 10.2462 14.5016C4.28132 16.5813 0.157227 20.0466 0.157227 23.9479Z" fill="#242424"/>
<path id="Vector_2" d="M41.9525 16.6276C41.4633 16.4593 40.9564 16.2999 40.4345 16.1493C40.5203 15.7992 40.599 15.4536 40.669 15.1139C41.8181 9.53603 41.0668 5.04244 38.5012 3.56297C36.0412 2.14434 32.018 3.62348 27.9548 7.15959C27.564 7.49962 27.1722 7.85963 26.7806 8.23693C26.5196 7.9873 26.2591 7.74606 25.9992 7.51532C21.7408 3.73428 17.4724 2.1409 14.9094 3.62466C12.4517 5.0474 11.7239 9.27179 12.7582 14.558C12.8581 15.0686 12.9749 15.59 13.1069 16.1202C12.5028 16.2916 11.9196 16.4745 11.3616 16.6689C6.36911 18.4095 3.18066 21.1375 3.18066 23.9671C3.18066 26.8896 6.60346 29.8208 11.8035 31.5982C12.2139 31.7384 12.6397 31.8711 13.0785 31.997C12.9361 32.5704 12.8122 33.1322 12.7082 33.6803C11.722 38.8747 12.4922 42.9993 14.9433 44.4131C17.4751 45.8731 21.7242 44.3724 25.8617 40.7557C26.1887 40.4698 26.5169 40.1666 26.8457 39.8488C27.2718 40.2592 27.6973 40.6476 28.1205 41.0118C32.1282 44.4606 36.0864 45.8532 38.5353 44.4355C41.0646 42.9713 41.8866 38.5405 40.8194 33.1497C40.7379 32.738 40.6431 32.3174 40.5365 31.8893C40.8349 31.8011 41.1279 31.71 41.4135 31.6153C46.8195 29.8242 50.3368 26.9286 50.3368 23.9671C50.3368 21.1273 47.0455 18.3809 41.9525 16.6276Z" fill="#ffba00"/>
<path id="Vector_3" d="M40.7802 29.7031C40.5223 29.7885 40.2578 29.871 39.9882 29.951C39.3914 28.0617 38.5859 26.0526 37.6002 23.9769C38.5408 21.9507 39.3152 19.9673 39.8952 18.0902C40.3776 18.2298 40.8458 18.3771 41.297 18.5324C45.6607 20.0346 48.3225 22.2557 48.3225 23.9671C48.3225 25.7901 45.4479 28.1565 40.7802 29.7031ZM38.8434 33.5409C39.3153 35.9246 39.3827 38.0798 39.0701 39.7646C38.7893 41.2785 38.2245 42.2879 37.5261 42.6921C36.04 43.5523 32.862 42.4342 29.4346 39.4848C29.0416 39.1467 28.6459 38.7857 28.2489 38.4036C29.5776 36.9504 30.9056 35.261 32.2016 33.3847C34.4813 33.1824 36.635 32.8517 38.5882 32.4002C38.6844 32.7882 38.7698 33.1688 38.8434 33.5409ZM19.2575 42.5434C17.8055 43.0562 16.6491 43.0709 15.9501 42.6678C14.4627 41.8099 13.8443 38.4983 14.6878 34.056C14.7844 33.5472 14.8994 33.0246 15.0319 32.4904C16.9637 32.9176 19.1016 33.225 21.3867 33.4102C22.6915 35.2462 24.0579 36.9337 25.4348 38.4114C25.1339 38.7018 24.8343 38.9783 24.5363 39.2388C22.7067 40.8381 20.8733 41.9728 19.2575 42.5434ZM12.4553 29.692C10.1559 28.9061 8.25701 27.8846 6.95539 26.77C5.78581 25.7684 5.19531 24.774 5.19531 23.9671C5.19531 22.25 7.75532 20.0598 12.025 18.5712C12.543 18.3906 13.0853 18.2203 13.6481 18.0604C14.2382 19.9799 15.0123 21.9868 15.9464 24.0161C15.0002 26.0756 14.2151 28.1145 13.6193 30.0564C13.218 29.9411 12.8293 29.8197 12.4553 29.692ZM14.7355 14.1711C13.8492 9.64204 14.4378 6.22545 15.9189 5.36812C17.4965 4.4548 20.985 5.757 24.6618 9.02174C24.8968 9.23041 25.1328 9.44881 25.3694 9.67477C23.9993 11.1459 22.6455 12.8208 21.3522 14.646C19.1344 14.8515 17.0115 15.1817 15.0596 15.6239C14.9369 15.1303 14.8282 14.6453 14.7355 14.1711ZM35.0765 19.1938C34.6099 18.3879 34.1308 17.601 33.6425 16.8355C35.1471 17.0257 36.5886 17.2782 37.9424 17.5872C37.5359 18.8897 37.0294 20.2516 36.4331 21.6478C36.0053 20.8357 35.5529 20.0169 35.0765 19.1938ZM26.7815 11.1145C27.7107 12.1211 28.6412 13.245 29.5564 14.4645C28.6341 14.4209 27.7004 14.3983 26.759 14.3983C25.8264 14.3983 24.8996 14.4204 23.983 14.4632C24.8992 13.2551 25.8378 12.1327 26.7815 11.1145ZM18.4333 19.2078C17.9672 20.016 17.5232 20.8304 17.1022 21.6462C16.5155 20.255 16.0137 18.8869 15.6037 17.5659C16.9491 17.2648 18.3839 17.0186 19.8789 16.832C19.3837 17.6045 18.9007 18.3974 18.4333 19.2078ZM19.9219 31.2459C18.3773 31.0736 16.921 30.8401 15.5759 30.5473C15.9924 29.2027 16.5054 27.8054 17.1044 26.3842C17.5265 27.1995 17.9723 28.0141 18.4413 28.8241C18.919 29.6493 19.414 30.4576 19.9219 31.2459ZM26.8372 36.9618C25.8824 35.9316 24.9301 34.7921 24 33.5663C24.9029 33.6018 25.8234 33.6199 26.759 33.6199C27.7201 33.6199 28.6703 33.5982 29.6055 33.5566C28.6873 34.8044 27.7601 35.9457 26.8372 36.9618ZM36.4523 26.3117C37.0826 27.7483 37.6139 29.1383 38.0358 30.46C36.6685 30.7719 35.1923 31.0231 33.637 31.2098C34.1265 30.4341 34.6097 29.6336 35.0845 28.8103C35.5649 27.9773 36.021 27.143 36.4523 26.3117ZM33.3396 27.8039C32.6024 29.082 31.8457 30.3021 31.0774 31.4538C29.6781 31.5539 28.2324 31.6054 26.759 31.6054C25.2915 31.6054 23.8641 31.5598 22.4895 31.4706C21.6902 30.3038 20.917 29.0801 20.1846 27.8149C19.4541 26.5531 18.7819 25.2807 18.1727 24.0155C18.7817 22.7473 19.4523 21.4734 20.1786 20.2139L20.1785 20.2142C20.9067 18.9514 21.6731 17.7336 22.465 16.5741C23.8674 16.4681 25.3055 16.4128 26.7589 16.4128C28.2188 16.4128 29.6588 16.4685 31.0608 16.5754C31.8406 17.7265 32.6018 18.9403 33.3329 20.2033C34.0723 21.4805 34.7516 22.7458 35.3658 23.9868C34.7534 25.2492 34.0757 26.5273 33.3396 27.8039ZM37.4952 5.30819C39.0743 6.21882 39.6884 9.89141 38.6963 14.7073C38.633 15.0146 38.5617 15.3276 38.4843 15.6448C36.5279 15.1934 34.4035 14.8575 32.1792 14.6488C30.8835 12.8036 29.5407 11.1261 28.193 9.67385C28.5553 9.32526 28.9172 8.99287 29.2775 8.67919C32.7589 5.64948 36.0127 4.45329 37.4952 5.30819Z" fill="#242424"/>
<path id="Vector_4" d="M26.7587 19.7562C29.0843 19.7562 30.9696 21.6415 30.9696 23.9671C30.9696 26.2927 29.0843 28.178 26.7587 28.178C24.4332 28.178 22.5479 26.2927 22.5479 23.9671C22.5479 21.6415 24.4332 19.7562 26.7587 19.7562Z" fill="#ffba00"/>
</g>
<defs>
<clipPath id="clip0_29_644">
<rect width="53.4261" height="48" fill="#242424"/>
</clipPath>
</defs>
</svg>
